<mxfile host="app.diagrams.net" agent="Mozilla/5.0 (Macintosh; Intel Mac OS X 10_15_7) AppleWebKit/537.36 (KHTML, like Gecko) Chrome/127.0.0.0 Safari/537.36" version="24.7.7">
  <diagram name="第 1 页" id="v_rf210XtzXQO-0uFHd5">
    <mxGraphModel dx="1493" dy="431" grid="1" gridSize="10" guides="1" tooltips="1" connect="1" arrows="1" fold="1" page="1" pageScale="1" pageWidth="827" pageHeight="1169" math="0" shadow="0">
      <root>
        <mxCell id="0" />
        <mxCell id="1" parent="0" />
        <mxCell id="Rxh7XKzHP8LFKw5AA_ND-2" value="" style="rounded=0;whiteSpace=wrap;html=1;" vertex="1" parent="1">
          <mxGeometry x="10" y="200" width="400" height="270" as="geometry" />
        </mxCell>
        <mxCell id="Rxh7XKzHP8LFKw5AA_ND-3" value="M" style="text;html=1;align=center;verticalAlign=middle;whiteSpace=wrap;rounded=0;" vertex="1" parent="1">
          <mxGeometry x="-80" y="340" width="60" height="30" as="geometry" />
        </mxCell>
        <mxCell id="Rxh7XKzHP8LFKw5AA_ND-4" value="K" style="text;html=1;align=center;verticalAlign=middle;whiteSpace=wrap;rounded=0;" vertex="1" parent="1">
          <mxGeometry x="170" y="160" width="60" height="30" as="geometry" />
        </mxCell>
        <mxCell id="Rxh7XKzHP8LFKw5AA_ND-5" value="" style="rounded=0;whiteSpace=wrap;html=1;" vertex="1" parent="1">
          <mxGeometry x="550" y="30" width="290" height="440" as="geometry" />
        </mxCell>
        <mxCell id="Rxh7XKzHP8LFKw5AA_ND-6" value="N" style="text;html=1;align=center;verticalAlign=middle;whiteSpace=wrap;rounded=0;" vertex="1" parent="1">
          <mxGeometry x="665" width="60" height="30" as="geometry" />
        </mxCell>
        <mxCell id="Rxh7XKzHP8LFKw5AA_ND-7" value="K" style="text;html=1;align=center;verticalAlign=middle;whiteSpace=wrap;rounded=0;" vertex="1" parent="1">
          <mxGeometry x="860" y="235" width="60" height="30" as="geometry" />
        </mxCell>
        <mxCell id="Rxh7XKzHP8LFKw5AA_ND-8" value="" style="rounded=0;whiteSpace=wrap;html=1;fillColor=#dae8fc;strokeColor=#6c8ebf;" vertex="1" parent="1">
          <mxGeometry x="1030" y="140" width="300" height="260" as="geometry" />
        </mxCell>
        <mxCell id="Rxh7XKzHP8LFKw5AA_ND-9" value="M" style="text;html=1;align=center;verticalAlign=middle;whiteSpace=wrap;rounded=0;fillColor=none;" vertex="1" parent="1">
          <mxGeometry x="970" y="235" width="60" height="30" as="geometry" />
        </mxCell>
        <mxCell id="Rxh7XKzHP8LFKw5AA_ND-10" value="N" style="text;html=1;align=center;verticalAlign=middle;whiteSpace=wrap;rounded=0;" vertex="1" parent="1">
          <mxGeometry x="1150" y="90" width="60" height="30" as="geometry" />
        </mxCell>
        <mxCell id="Rxh7XKzHP8LFKw5AA_ND-12" value="" style="rounded=0;whiteSpace=wrap;html=1;fillColor=none;" vertex="1" parent="1">
          <mxGeometry x="1030" y="140" width="120" height="100" as="geometry" />
        </mxCell>
        <mxCell id="Rxh7XKzHP8LFKw5AA_ND-13" value="" style="rounded=0;whiteSpace=wrap;html=1;fillColor=none;" vertex="1" parent="1">
          <mxGeometry x="1030" y="240" width="120" height="100" as="geometry" />
        </mxCell>
        <mxCell id="Rxh7XKzHP8LFKw5AA_ND-14" value="" style="rounded=0;whiteSpace=wrap;html=1;fillColor=none;" vertex="1" parent="1">
          <mxGeometry x="1030" y="340" width="120" height="100" as="geometry" />
        </mxCell>
        <mxCell id="Rxh7XKzHP8LFKw5AA_ND-15" value="" style="rounded=0;whiteSpace=wrap;html=1;fillColor=none;" vertex="1" parent="1">
          <mxGeometry x="1150" y="140" width="120" height="100" as="geometry" />
        </mxCell>
        <mxCell id="Rxh7XKzHP8LFKw5AA_ND-16" value="" style="rounded=0;whiteSpace=wrap;html=1;fillColor=none;" vertex="1" parent="1">
          <mxGeometry x="1150" y="240" width="120" height="100" as="geometry" />
        </mxCell>
        <mxCell id="Rxh7XKzHP8LFKw5AA_ND-17" value="" style="rounded=0;whiteSpace=wrap;html=1;fillColor=none;" vertex="1" parent="1">
          <mxGeometry x="1150" y="340" width="120" height="100" as="geometry" />
        </mxCell>
        <mxCell id="Rxh7XKzHP8LFKw5AA_ND-18" value="" style="rounded=0;whiteSpace=wrap;html=1;fillColor=none;" vertex="1" parent="1">
          <mxGeometry x="1270" y="140" width="120" height="100" as="geometry" />
        </mxCell>
        <mxCell id="Rxh7XKzHP8LFKw5AA_ND-19" value="" style="rounded=0;whiteSpace=wrap;html=1;fillColor=none;" vertex="1" parent="1">
          <mxGeometry x="1270" y="240" width="120" height="100" as="geometry" />
        </mxCell>
        <mxCell id="Rxh7XKzHP8LFKw5AA_ND-20" value="" style="rounded=0;whiteSpace=wrap;html=1;fillColor=none;" vertex="1" parent="1">
          <mxGeometry x="1270" y="340" width="120" height="100" as="geometry" />
        </mxCell>
      </root>
    </mxGraphModel>
  </diagram>
</mxfile>
